<svg width="15" height="15" viewBox="0 0 15 15" fill="none" xmlns="http://www.w3.org/2000/svg">
<path d="M15 7.5C15 11.6421 11.6421 15 7.5 15C3.35786 15 0 11.6421 0 7.5C0 3.35786 3.35786 0 7.5 0C11.6421 0 15 3.35786 15 7.5ZM1.58943 7.5C1.58943 10.7643 4.23568 13.4106 7.5 13.4106C10.7643 13.4106 13.4106 10.7643 13.4106 7.5C13.4106 4.23568 10.7643 1.58943 7.5 1.58943C4.23568 1.58943 1.58943 4.23568 1.58943 7.5Z" fill="#FB4E4E"/>
<path d="M7.5 4V8.5M7.5 11V10" stroke="#FB4E4E" stroke-width="1.5"/>
</svg>
