<svg width="18" height="18" viewBox="0 0 18 18" fill="none" xmlns="http://www.w3.org/2000/svg">
<mask id="path-2-inside-1" fill="white">
<path d="M1 1H17V17H1V1Z"/>
</mask>
<path d="M1.5 9.6H16.5V8.4H1.5V9.6ZM4.4 1.5V5.5H5.6V1.5H4.4ZM1.5 6.1H5V4.9H1.5V6.1ZM12.4 1.5V5.5H13.6V1.5H12.4ZM13 6.1H16.5V4.9H13V6.1ZM4.4 5.5V13H5.6V5.5H4.4ZM4.4 13V16H5.6V13H4.4ZM5 12.4H1.5V13.6H5V12.4ZM12.4 5.5V13H13.6V5.5H12.4ZM12.4 13V16.5H13.6V13H12.4ZM13 13.6H16.5V12.4H13V13.6ZM1 1V-0.2H-0.2V1H1ZM17 1H18.2V-0.2H17V1ZM17 17V18.2H18.2V17H17ZM1 17H-0.2V18.2H1V17ZM1 2.2H17V-0.2H1V2.2ZM15.8 1V17H18.2V1H15.8ZM17 15.8H1V18.2H17V15.8ZM2.2 17V1H-0.2V17H2.2Z" fill="#A0A4A8" mask="url(#path-2-inside-1)"/>
</svg>
