<svg width="8" height="8" viewBox="0 0 8 8" fill="none" xmlns="http://www.w3.org/2000/svg">
<path d="M7.33335 5.63999V6.63999C7.33373 6.73283 7.31471 6.82471 7.27752 6.90977C7.24033 6.99483 7.18579 7.07119 7.11738 7.13395C7.04897 7.19671 6.96821 7.24449 6.88027 7.27423C6.79233 7.30397 6.69914 7.31501 6.60669 7.30666C5.58096 7.19521 4.59568 6.84471 3.73002 6.28333C2.92463 5.77155 2.2418 5.08872 1.73002 4.28333C1.16668 3.41373 0.816099 2.42366 0.706685 1.39332C0.698355 1.30115 0.70931 1.20825 0.738852 1.12053C0.768394 1.03282 0.815875 0.952221 0.878274 0.883865C0.940672 0.815509 1.01662 0.760895 1.10128 0.723499C1.18594 0.686103 1.27747 0.666745 1.37002 0.666658H2.37002C2.53179 0.665066 2.68862 0.722351 2.81127 0.827836C2.93393 0.933321 3.01404 1.07981 3.03669 1.23999C3.07889 1.56001 3.15717 1.87423 3.27002 2.17666C3.31487 2.29597 3.32457 2.42563 3.29799 2.55029C3.2714 2.67494 3.20964 2.78936 3.12002 2.87999L2.69669 3.30332C3.1712 4.13784 3.86217 4.82881 4.69669 5.30333L5.12002 4.87999C5.21065 4.79037 5.32507 4.72861 5.44972 4.70202C5.57438 4.67544 5.70404 4.68514 5.82335 4.72999C6.12578 4.84284 6.44 4.92112 6.76002 4.96333C6.92194 4.98617 7.06982 5.06773 7.17553 5.19249C7.28124 5.31725 7.33741 5.47652 7.33335 5.63999Z" stroke="#A0A4A8" stroke-width="0.7" stroke-linecap="round" stroke-linejoin="round"/>
</svg>
