<svg width="15" height="14" viewBox="0 0 15 14" fill="none" xmlns="http://www.w3.org/2000/svg">
<path d="M14.2053 6.5C14.6442 6.5 15.0044 6.8568 14.9579 7.29325C14.8481 8.32574 14.5247 9.32721 14.0051 10.2328C13.3532 11.3688 12.4152 12.3144 11.2843 12.9752C10.1535 13.6361 8.86932 13.9894 7.55957 13.9998C6.24982 14.0102 4.96018 13.6774 3.81899 13.0345C2.67781 12.3917 1.72487 11.4612 1.05502 10.3356C0.385163 9.2101 0.0217509 7.92876 0.00094619 6.61913C-0.0198586 5.3095 0.30267 4.01726 0.936433 2.87101C1.44163 1.95729 2.13055 1.16173 2.95667 0.532742C3.30588 0.266861 3.79767 0.389984 4.02513 0.765357C4.25258 1.14073 4.12847 1.62554 3.78698 1.90127C3.19461 2.37955 2.69821 2.96942 2.32741 3.64008C1.82796 4.54341 1.57378 5.5618 1.59018 6.59388C1.60657 7.62597 1.89297 8.63577 2.42086 9.52278C2.94876 10.4098 3.69974 11.1431 4.59909 11.6497C5.49843 12.1563 6.51476 12.4186 7.54694 12.4104C8.57913 12.4022 9.59117 12.1238 10.4823 11.603C11.3735 11.0822 12.1128 10.337 12.6265 9.44172C13.0079 8.77705 13.2552 8.04681 13.3572 7.29234C13.4161 6.85739 13.7664 6.5 14.2053 6.5Z" fill="#F6A609"/>
</svg>
